<svg width="2051" height="1173" viewBox="0 0 2051 1173" fill="none" xmlns="http://www.w3.org/2000/svg">
<path d="M1847 101C1867.99 101 1885 84.2107 1885 63.5C1885 42.7893 1867.99 26 1847 26C1826.01 26 1809 42.7893 1809 63.5C1809 84.2107 1826.01 101 1847 101Z" stroke="#FEC75D" stroke-width="30" stroke-linejoin="round"/>
<path d="M1624 924.952V939.952C1632.28 939.952 1639 933.236 1639 924.952H1624ZM1594 924.952H1579C1579 933.236 1585.72 939.952 1594 939.952V924.952ZM1783.86 826.658L1796.96 833.978C1801 826.747 1798.41 817.608 1791.18 813.565L1783.86 826.658ZM1769.22 852.844L1761.91 865.937C1765.38 867.878 1769.48 868.36 1773.31 867.278C1777.14 866.195 1780.38 863.636 1782.32 860.163L1769.22 852.844ZM1820.08 857.29L1831.83 847.972C1826.69 841.48 1817.25 840.389 1810.76 845.535L1820.08 857.29ZM1844 993V1008C1852.28 1008 1859 1001.28 1859 993H1844ZM1814 993H1799C1799 1001.28 1805.72 1008 1814 1008V993ZM1796.57 875.925L1787.25 864.17C1780.76 869.317 1779.67 878.751 1784.81 885.243L1796.57 875.925ZM1639 924.952C1639 888.891 1672.12 855 1719 855V825C1658.18 825 1609 869.812 1609 924.952H1639ZM1594 939.952H1624V909.952H1594V939.952ZM1719 795C1644.5 795 1579 850.492 1579 924.952H1609C1609 869.796 1658.19 825 1719 825V795ZM1791.18 813.565C1769.98 801.71 1745.22 795 1719 795V825C1740.09 825 1759.81 830.393 1776.54 839.751L1791.18 813.565ZM1782.32 860.163L1796.96 833.978L1770.77 819.339L1756.13 845.524L1782.32 860.163ZM1719 855C1734.96 855 1749.63 859.077 1761.91 865.937L1776.54 839.751C1759.81 830.393 1740.09 825 1719 825V855ZM1859 924.952C1859 895.934 1848.74 869.305 1831.83 847.972L1808.32 866.607C1821.34 883.024 1829 903.176 1829 924.952H1859ZM1859 993V924.952H1829V993H1859ZM1814 1008H1844V978H1814V1008ZM1799 924.952V993H1829V924.952H1799ZM1784.81 885.243C1793.92 896.738 1799 910.412 1799 924.952H1829C1829 903.177 1821.34 883.024 1808.32 866.607L1784.81 885.243ZM1810.76 845.535L1787.25 864.17L1805.89 887.68L1829.4 869.045L1810.76 845.535Z" fill="#E2505D"/>
<path d="M1872 233H1908.55C1933.1 233 1953 213.972 1953 190.5C1953 167.028 1933.1 148 1908.55 148H1835.45C1810.9 148 1791 167.028 1791 190.5" stroke="#E2505D" stroke-width="30" stroke-linejoin="round"/>
<path d="M1830 1154C1830 1115.89 1860.8 1085 1898.79 1085H2020" stroke="#FEC75D" stroke-width="30" stroke-linejoin="round"/>
<path d="M1923.5 269C1923.5 274.01 1923.5 337.088 1923.5 368" stroke="#E2505D" stroke-width="30" stroke-linejoin="round"/>
<path d="M1535.5 1073H1532.36C1510.07 1073 1492 1091.13 1492 1113.5C1492 1135.87 1510.07 1154 1532.36 1154H1625.64C1647.93 1154 1666 1135.87 1666 1113.5C1666 1091.13 1647.93 1073 1625.64 1073H1622.5" stroke="#1C528A" stroke-width="30" stroke-linejoin="round"/>
<path d="M1843 522C1843 496.043 1864.04 475 1890 475C1915.96 475 1937 496.043 1937 522" stroke="#FEC75D" stroke-width="30" stroke-linejoin="round"/>
<path d="M1953.5 600C1953.5 577.08 1971.86 558.5 1994.5 558.5C2017.14 558.5 2035.5 577.08 2035.5 600C2035.5 622.92 2017.14 641.5 1994.5 641.5C1971.86 641.5 1953.5 622.92 1953.5 600Z" stroke="#E2505D" stroke-width="30" stroke-linejoin="round"/>
<path d="M80 131C80 151.987 63.2107 169 42.5 169C21.7893 169 5 151.987 5 131" stroke="#FEC75D" stroke-width="30" stroke-linejoin="round"/>
<path d="M1182 1158C1156.04 1158 1135 1136.96 1135 1111C1135 1085.04 1156.04 1064 1182 1064" stroke="#87D8D8" stroke-width="30" stroke-linejoin="round"/>
<path d="M1582.56 181C1604.34 181 1622 163.539 1622 142C1622 120.461 1604.34 103 1582.56 103H1538" stroke="#E2505D" stroke-width="30" stroke-linejoin="round"/>
<path d="M1743 1158V1005.92C1743 976.14 1718.83 952 1689 952C1659.17 952 1635 976.14 1635 1005.92V1029.46" stroke="#87D8D8" stroke-width="30" stroke-linejoin="round"/>
<path d="M33 861C47.9117 861 60 849.136 60 834.5C60 819.864 47.9117 808 33 808C18.0883 808 6 819.864 6 834.5C6 849.136 18.0883 861 33 861Z" stroke="#FEC75D" stroke-width="30" stroke-linejoin="round"/>
<path d="M206 359C257.915 359 300 317.587 300 266.5C300 215.413 257.915 174 206 174C154.085 174 112 215.413 112 266.5" stroke="#E2505D" stroke-width="30" stroke-linejoin="round"/>
<path d="M117.5 90C138.211 90 155 73.2111 155 52.5C155 31.7889 138.211 15 117.5 15C96.7891 15 80 31.7889 80 52.5V90" stroke="#E2505D" stroke-width="30" stroke-linejoin="round"/>
<path d="M1877 269V351.012C1877 386.351 1848.08 415 1812.41 415H1762" stroke="#1C528A" stroke-width="30" stroke-linejoin="round"/>
<path d="M634 319V373.993C634 413.762 666.236 446 706 446" stroke="#87D8D8" stroke-width="30" stroke-linejoin="round"/>
<path d="M523 708V621.92C523 572.356 561.841 530.837 614 520" stroke="#E2505D" stroke-width="30" stroke-linejoin="round"/>
<path d="M1516.5 398.5H1621.81C1682.45 398.5 1733.24 445.877 1746.5 509.5" stroke="#1C528A" stroke-width="30"/>
<path d="M1732 279.3C1732 253.177 1753.27 232 1779.5 232C1805.73 232 1827 253.177 1827 279.3V313.7C1827 339.823 1805.73 361 1779.5 361C1753.27 361 1732 339.823 1732 313.7V279.3Z" stroke="#87D8D8" stroke-width="30" stroke-linejoin="round"/>
<path d="M746.999 326L747 125.197C747 85.8765 715.212 54 676 54" stroke="#E2505D" stroke-width="30" stroke-linejoin="round"/>
<path d="M1419 206C1436.67 206 1451 191.673 1451 174C1451 156.327 1436.67 142 1419 142C1401.33 142 1387 156.327 1387 174C1387 191.673 1401.33 206 1419 206Z" stroke="#87D8D8" stroke-width="30" stroke-linejoin="round"/>
<path d="M1419 264C1469.81 264 1511 223.482 1511 173.5C1511 123.518 1469.81 83 1419 83C1368.19 83 1327 123.518 1327 173.5" stroke="#E2505D" stroke-width="30" stroke-linejoin="round"/>
<path d="M1263.5 25C1242.79 25 1226 41.7889 1226 62.5C1226 83.2111 1242.79 100 1263.5 100C1284.21 100 1301 83.2111 1301 62.5V25" stroke="#1C528A" stroke-width="30" stroke-linejoin="round"/>
<path d="M1115.5 770.758C1091.48 770.758 1072 790.06 1072 813.875C1072 837.691 1091.48 857 1115.5 857C1139.52 857 1159 837.691 1159 813.875V682" stroke="#FEC75D" stroke-width="30" stroke-linejoin="round"/>
<path d="M945.831 1064.5C945.831 1086.31 963.334 1104 984.92 1104C1006.51 1104 1024 1086.31 1024 1064.5C1024 1042.69 1006.51 1025 984.92 1025H854" stroke="#E2505D" stroke-width="30" stroke-linejoin="round"/>
<path d="M56.5 1004.88C84.9429 1004.88 108 982.073 108 953.945C108 925.808 84.9429 903 56.5 903C28.0574 903 5 925.808 5 953.945V1162" stroke="#87D8D8" stroke-width="30" stroke-linejoin="round"/>
<path d="M781.792 1080H881.208C901.53 1080 918 1096.56 918 1117C918 1137.44 901.53 1154 881.208 1154H781.792C761.473 1154 745 1137.44 745 1117C745 1096.56 761.473 1080 781.792 1080Z" stroke="#FEC75D" stroke-width="30" stroke-linejoin="round"/>
<path d="M597 220C597 269.706 556.706 310 507 310C457.294 310 417 269.706 417 220" stroke="#E2505D" stroke-width="30" stroke-linejoin="round"/>
<path d="M675 265V155.002C675 133.462 657.539 116 636 116C614.461 116 597 133.462 597 155.002V172.028" stroke="#1C528A" stroke-width="30" stroke-linejoin="round"/>
<path d="M444 409C458.912 409 471 397.136 471 382.5C471 367.864 458.912 356 444 356C429.088 356 417 367.864 417 382.5C417 397.136 429.088 409 444 409Z" stroke="#1C528A" stroke-width="30" stroke-linejoin="round"/>
<path d="M467 203.225V92.775C467 71.3602 484.461 54 506 54C527.539 54 545 71.3602 545 92.775V203.225C545 224.64 527.539 242 506 242C484.461 242 467 224.64 467 203.225Z" stroke="#FEC75D" stroke-width="30" stroke-linejoin="round"/>
<path d="M1360 265H1271.93C1216.19 265 1171 310.219 1171 366" stroke="#E2505D" stroke-width="30" stroke-linejoin="round"/>
<path d="M205.5 306.51C226.211 306.51 243 289.831 243 269.255C243 248.679 226.211 232 205.5 232C184.789 232 168 248.679 168 269.255V512" stroke="#1C528A" stroke-width="30" stroke-linejoin="round"/>
<path d="M1447.5 459C1425.69 459 1408 476.461 1408 498C1408 519.539 1425.69 537 1447.5 537C1469.31 537 1487 519.539 1487 498V459" stroke="#E2505D" stroke-width="30" stroke-linejoin="round"/>
<path d="M1689 643.754C1689 699.671 1734.89 745 1791.5 745C1848.11 745 1894 699.671 1894 643.754V535" stroke="#87D8D8" stroke-width="30" stroke-linejoin="round"/>
<path d="M1635.63 691H1630.53C1601.52 691 1578 667.495 1578 638.5C1578 609.505 1601.52 586 1630.53 586H1790.47C1819.48 586 1843 609.505 1843 638.5C1843 667.495 1819.48 691 1790.47 691H1788.9" stroke="#1C528A" stroke-width="30" stroke-linejoin="round"/>
<path d="M1538 459H1602.53C1645.87 459 1681 493.922 1681 537" stroke="#87D8D8" stroke-width="30" stroke-linejoin="round"/>
<path d="M869 853C889.987 853 907 836.211 907 815.5C907 794.789 889.987 778 869 778C848.013 778 831 794.789 831 815.5C831 836.211 848.013 853 869 853Z" stroke="#1C528A" stroke-width="30" stroke-linejoin="round"/>
<path d="M776.404 793.52C762.46 845.644 792.621 899.026 843.76 912.757C894.9 926.487 947.656 895.361 961.597 843.237C975.538 791.114 945.38 737.732 894.241 724" stroke="#FEC75D" stroke-width="30" stroke-linejoin="round"/>
<path d="M845.659 723.603H660.399C624.696 723.584 595.739 694.081 595.723 657.703C595.706 621.324 624.633 591.847 660.336 591.865C696.038 591.884 724.996 621.386 725.012 657.765H664.692V657.765" stroke="#1C528A" stroke-width="30"/>
<path d="M841.5 510C841.5 518.958 841.5 631.732 841.5 687" stroke="#87D8D8" stroke-width="30" stroke-linejoin="round"/>
<path d="M501.02 1065C484.992 1065 472 1052.24 472 1036.5C472 1020.76 484.992 1008 501.02 1008H532" stroke="#FEC75D" stroke-width="30" stroke-linejoin="round"/>
<path d="M327.5 1108C350.42 1108 369 1089.64 369 1067C369 1044.36 350.42 1026 327.5 1026C304.58 1026 286 1044.36 286 1067C286 1089.64 304.58 1108 327.5 1108Z" stroke="#E2505D" stroke-width="30" stroke-linejoin="round"/>
<path d="M415 1066C415 1015.19 374.482 974 324.5 974C274.518 974 234 1015.19 234 1066C234 1116.81 274.518 1158 324.5 1158" stroke="#1C528A" stroke-width="30" stroke-linejoin="round"/>
<path d="M569 1008H606.905C632.363 1008 653 988.302 653 964C653 939.698 632.363 920 606.905 920H531.095C505.637 920 485 939.698 485 964" stroke="#1C528A" stroke-width="30" stroke-linejoin="round"/>
<path d="M416 945C416 898.612 453.445 861 499.636 861H647" stroke="#1C528A" stroke-width="30" stroke-linejoin="round"/>
<path d="M368.5 861C368.5 865.248 368.5 918.766 368.5 945" stroke="#E2505D" stroke-width="30" stroke-linejoin="round"/>
<path d="M786.5 610C786.5 613.695 786.5 660.206 786.5 683" stroke="#E2505D" stroke-width="30" stroke-linejoin="round"/>
<path d="M902.085 403.5C902.085 426.42 883.713 445 861.042 445C838.372 445 820 426.42 820 403.5C820 380.58 838.372 362 861.042 362H993" stroke="#E2505D" stroke-width="30" stroke-linejoin="round"/>
<path d="M1046 492.5V434.153C1046 417.5 1059.43 404 1076 404C1092.57 404 1106 417.5 1106 434.153V550.847C1106 567.5 1092.57 581 1076 581C1059.43 581 1046 567.5 1046 550.847V536.75" stroke="#FEC75D" stroke-width="30" stroke-linejoin="round"/>
<path d="M994 404V555.829C994 601.211 1030.94 638 1076.5 638C1122.06 638 1159 601.211 1159 555.829V519.957" stroke="#87D8D8" stroke-width="30" stroke-linejoin="round"/>
<path d="M1007 269H963.695C932.383 269 907 294.52 907 326" stroke="#1C528A" stroke-width="30" stroke-linejoin="round"/>
<path d="M1045.5 226C1045.5 232.07 1045.5 324.553 1045.5 362" stroke="#E2505D" stroke-width="30" stroke-linejoin="round"/>
<path d="M1294 448.149V461.332C1294 479.927 1278.83 495 1260.12 495C1241.41 495 1226.24 479.927 1226.24 461.332V450.412C1226.24 431.959 1211.19 417 1192.62 417C1174.05 417 1159 431.959 1159 450.412V463.851" stroke="#87D8D8" stroke-width="30" stroke-linejoin="round"/>
<path d="M87.7203 734C39.2737 734 0 694.601 0 646C0 597.399 39.2737 558 87.7203 558H168" stroke="#FEC75D" stroke-width="30" stroke-linejoin="round"/>
<path d="M222.5 722.081C201.789 722.081 185 738.855 185 759.541C185 780.226 201.789 797 222.5 797C243.211 797 260 780.226 260 759.541V700" stroke="#1C528A" stroke-width="30" stroke-linejoin="round"/>
<path d="M128.5 685H96.2354C74.5662 685 57 667.539 57 646C57 624.461 74.5662 607 96.2354 607H160.765C182.434 607 200 624.461 200 646V649.465C200 669.09 183.994 685 164.25 685" stroke="#E2505D" stroke-width="30" stroke-linejoin="round"/>
<path d="M265 645V585.934C265 551.925 291.89 523.436 328 516" stroke="#FEC75D" stroke-width="30" stroke-linejoin="round"/>
<path d="M222.5 558C222.5 550.129 222.5 464.562 222.5 416" stroke="#87D8D8" stroke-width="30" stroke-linejoin="round"/>
<path d="M319 625.879C319 599.437 340.491 578 367 578C393.509 578 415 599.437 415 625.879V738.121C415 764.564 393.509 786 367 786C340.491 786 319 764.564 319 738.121V625.879Z" stroke="#87D8D8" stroke-width="30" stroke-linejoin="round"/>
<path d="M1226 843.437C1226 821.66 1243.46 804 1265 804C1286.54 804 1304 821.66 1304 843.437V888" stroke="#E2505D" stroke-width="30" stroke-linejoin="round"/>
<path d="M1386.5 822C1409.42 822 1428 803.644 1428 781C1428 758.356 1409.42 740 1386.5 740C1363.58 740 1345 758.356 1345 781C1345 803.644 1363.58 822 1386.5 822Z" stroke="#E2505D" stroke-width="30" stroke-linejoin="round"/>
<path d="M1305.73 962.5C1305.73 983.211 1289 1000 1268.37 1000C1247.73 1000 1231 983.211 1231 962.5C1231 941.789 1247.73 925 1268.37 925H1408" stroke="#FEC75D" stroke-width="30" stroke-linejoin="round"/>
<path d="M1259 686H1395.16C1446.99 686 1489 728.089 1489 780C1489 831.911 1446.99 874 1395.16 874H1354.2" stroke="#1C528A" stroke-width="30" stroke-linejoin="round"/>
<path d="M1457 925H1500.15C1543.7 925 1579 960.454 1579 1004.19V1085" stroke="#FEC75D" stroke-width="30" stroke-linejoin="round"/>
<path d="M1499 1031C1513.91 1031 1526 1019.14 1526 1004.5C1526 989.864 1513.91 978 1499 978C1484.09 978 1472 989.864 1472 1004.5C1472 1019.14 1484.09 1031 1499 1031Z" stroke="#1C528A" stroke-width="30" stroke-linejoin="round"/>
<path d="M1352.47 1094C1352.49 1104 1352.51 1114 1352.53 1124" stroke="#87D8D8" stroke-width="30" stroke-linejoin="round"/>
<path d="M1352.47 1035C1352.49 1045 1352.51 1055 1352.53 1065" stroke="#FEC75D" stroke-width="30" stroke-linejoin="round"/>
<path d="M1165.47 984C1165.49 994 1165.51 1004 1165.53 1014" stroke="#87D8D8" stroke-width="30" stroke-linejoin="round"/>
<path d="M1165.47 925C1165.49 935 1165.51 945 1165.53 955" stroke="#E2505D" stroke-width="30" stroke-linejoin="round"/>
<path d="M1105.47 925C1105.49 935 1105.51 945 1105.53 955" stroke="#FEC75D" stroke-width="30" stroke-linejoin="round"/>
<path d="M689.471 846C689.49 856 689.51 866 689.529 876" stroke="#1C528A" stroke-width="30" stroke-linejoin="round"/>
<path d="M246.471 867C246.49 877 246.51 887 246.529 897" stroke="#E2505D" stroke-width="30" stroke-linejoin="round"/>
<path d="M381.471 463C381.49 473 381.51 483 381.529 493" stroke="#E2505D" stroke-width="30" stroke-linejoin="round"/>
<path d="M332.471 389C332.49 399 332.51 409 332.529 419" stroke="#FEC75D" stroke-width="30" stroke-linejoin="round"/>
<path d="M111.471 310C111.49 320 111.51 330 111.529 340" stroke="#87D8D8" stroke-width="30" stroke-linejoin="round"/>
<path d="M746.471 430C746.49 440 746.51 450 746.529 460" stroke="#87D8D8" stroke-width="30" stroke-linejoin="round"/>
<path d="M1044.47 113C1044.49 123 1044.51 133 1044.53 143" stroke="#87D8D8" stroke-width="30" stroke-linejoin="round"/>
<path d="M1044.47 56C1044.49 66 1044.51 76 1044.53 86" stroke="#1C528A" stroke-width="30" stroke-linejoin="round"/>
<path d="M1373.47 590C1373.49 600 1373.51 610 1373.53 620" stroke="#1C528A" stroke-width="30" stroke-linejoin="round"/>
<path d="M1444.47 590C1444.49 600 1444.51 610 1444.53 620" stroke="#1C528A" stroke-width="30" stroke-linejoin="round"/>
<path d="M1515.47 590C1515.49 600 1515.51 610 1515.53 620" stroke="#1C528A" stroke-width="30" stroke-linejoin="round"/>
<path d="M1914.47 962C1914.49 972 1914.51 982 1914.53 992" stroke="#E2505D" stroke-width="30" stroke-linejoin="round"/>
</svg>
