<svg width="53" height="53" viewBox="0 0 53 53" fill="none" xmlns="http://www.w3.org/2000/svg">
<path d="M13.0013 13.0013H6.5L0 6.5V0H6.5L13.0013 6.5V13.0013ZM26.0013 13.0013H32.5027L39.0027 6.5V0H32.5027L26.0013 6.5L19.5013 0H13.0013V6.5L19.5013 13.0013H26.0013V13.0013ZM52.004 0H45.5027L39.0027 6.5V13.0013H45.5027L52.004 6.5V0ZM39.0027 26.0013V32.5013L45.5027 39.0027H52.004V32.5013L45.5027 26.0013L52.004 19.5013V13.0013H45.5027L39.0027 19.5013V26.0013ZM26.0027 19.5013L19.5013 13.0013H13.0013V19.5013L19.5013 26.0013L13.0013 32.5013V39.0027H19.5013L26.0013 32.5013L32.5027 39.0027H39.0027V32.5013L32.5027 26.0013L39.0027 19.5013V13.0013H32.5027L26.0013 19.5013H26.0027ZM39.0027 45.5027L45.5027 52.0027H52.004V45.5027L45.5027 39.0027H39.0027V45.5027ZM26.0027 39.0027H19.5013L13.0013 45.5027V52.0027H19.5013L26.0013 45.5027L32.5027 52.0027H39.0027V45.5027L32.5027 39.0027H26.0013H26.0027ZM6.5 39.0027L0 45.5027V52.0027H6.5L13.0013 45.5027V39.0027H6.5ZM13.0013 26.0027V19.5013L6.5 13.0013H0V19.5013L6.5 26.0013L0 32.5013V39.0027H6.5L13.0013 32.5013V26.0013V26.0027Z" fill="#FD0054"/>
</svg>
